<?xml version="1.0" encoding="utf-8"?>
<!-- Generator: Adobe Illustrator 17.0.0, SVG Export Plug-In . SVG Version: 6.00 Build 0)  -->
<!DOCTYPE svg PUBLIC "-//W3C//DTD SVG 1.1//EN" "http://www.w3.org/Graphics/SVG/1.1/DTD/svg11.dtd">
<svg version="1.1" id="Layer_1" xmlns="http://www.w3.org/2000/svg" xmlns:xlink="http://www.w3.org/1999/xlink" x="0px" y="0px"
	 width="48px" height="48px" viewBox="0 0 48 48" enable-background="new 0 0 48 48" xml:space="preserve">
<g>
	<path fill="#FFFFFF" d="M15.738,14.438c0-0.167-0.067-0.335-0.188-0.456l-1.969-1.969l1.969-1.969
		c0.121-0.121,0.188-0.288,0.188-0.455c0-0.168-0.067-0.335-0.188-0.455L14.64,8.222c-0.121-0.12-0.288-0.188-0.455-0.188
		s-0.335,0.067-0.455,0.188l-1.969,1.969L9.79,8.222c-0.121-0.12-0.288-0.188-0.456-0.188c-0.167,0-0.335,0.067-0.455,0.188
		L7.968,9.133C7.847,9.254,7.78,9.421,7.78,9.589c0,0.167,0.067,0.335,0.188,0.455l1.969,1.969l-1.969,1.969
		c-0.121,0.121-0.188,0.288-0.188,0.456c0,0.167,0.067,0.335,0.188,0.455l0.911,0.911c0.12,0.12,0.288,0.188,0.455,0.188
		c0.168,0,0.335-0.067,0.456-0.188l1.969-1.97l1.969,1.97c0.121,0.12,0.288,0.188,0.455,0.188s0.335-0.067,0.455-0.188l0.911-0.911
		C15.671,14.774,15.738,14.606,15.738,14.438z"/>
	<g>
		<g>
			<path fill-rule="evenodd" clip-rule="evenodd" fill="#FFFFFF" d="M15.738,9.589c0-0.168-0.067-0.335-0.188-0.456L14.64,8.222
				c-0.12-0.12-0.288-0.188-0.455-0.188c-0.168,0-0.335,0.067-0.456,0.188l-1.969,1.969L9.79,8.222
				c-0.12-0.12-0.288-0.188-0.456-0.188C9.167,8.034,9,8.102,8.879,8.222L7.968,9.133C7.847,9.254,7.78,9.421,7.78,9.589
				c0,0.167,0.067,0.335,0.188,0.456l1.969,1.969l-1.969,1.97c-0.121,0.121-0.188,0.288-0.188,0.455
				c0,0.167,0.067,0.335,0.188,0.456l0.911,0.911c0.121,0.12,0.288,0.188,0.455,0.188c0.168,0,0.335-0.067,0.456-0.188l1.969-1.969
				l1.969,1.969c0.12,0.12,0.288,0.188,0.456,0.188c0.167,0,0.335-0.067,0.455-0.188l0.911-0.911
				c0.121-0.12,0.188-0.288,0.188-0.456c0-0.167-0.067-0.335-0.188-0.455l-1.969-1.97l1.969-1.969
				C15.671,9.923,15.738,9.756,15.738,9.589z M12,0C5.383,0,0,5.383,0,12c0,6.617,5.383,12,12,12c6.617,0,12-5.383,12-12
				C24,5.383,18.617,0,12,0z M12,23.04C5.913,23.04,0.96,18.088,0.96,12C0.96,5.912,5.913,0.96,12,0.96
				c6.087,0,11.04,4.952,11.04,11.04C23.04,18.088,18.088,23.04,12,23.04z"/>
		</g>
	</g>
</g>
<g>
	<g>
		<path fill="#FFFFFF" d="M36,0c-6.617,0-12,5.383-12,12c0,6.617,5.383,12,12,12c6.617,0,12-5.383,12-12C48,5.383,42.617,0,36,0z
			 M36,23.04c-6.087,0-11.04-4.952-11.04-11.04c0-6.088,4.952-11.04,11.04-11.04c6.088,0,11.04,4.952,11.04,11.04
			C47.04,18.088,42.087,23.04,36,23.04z M34.998,18h2L37,10h-2L34.998,18z M35,9h2V7h-2V9z"/>
	</g>
</g>
<g>
	<g>
		<path fill="#FFFFFF" d="M12,24C5.383,24,0,29.383,0,36c0,6.617,5.383,12,12,12c6.617,0,12-5.383,12-12C24,29.383,18.617,24,12,24z
			 M12,47.04C5.912,47.04,0.96,42.087,0.96,36c0-6.088,4.953-11.04,11.04-11.04c6.087,0,11.04,4.952,11.04,11.04
			C23.04,42.087,18.087,47.04,12,47.04z M11,42h3v-2h-3V42z M11,34l1,4h1l1-4v-3h-3V34z"/>
	</g>
</g>
<g>
	<g>
		<path fill-rule="evenodd" clip-rule="evenodd" fill="#FFFFFF" d="M31.502,30.74c-0.452,0-0.815,0.371-0.815,0.834
			c0,0.3,0.159,0.567,0.408,0.717v8.251c0,0.111,0.095,0.209,0.204,0.209h0.408c0.108,0,0.204-0.098,0.204-0.209v-8.251
			c0.248-0.15,0.408-0.417,0.408-0.717C32.317,31.112,31.954,30.74,31.502,30.74z M41.283,31.574c-0.28,0-1.356,0.886-2.356,0.886
			c-0.197,0-0.382-0.032-0.56-0.124c-0.885-0.424-1.668-0.763-2.668-0.763c-0.904,0-1.879,0.365-2.681,0.782
			c-0.166,0.085-0.35,0.176-0.503,0.28c-0.121,0.092-0.197,0.202-0.197,0.358v4.836c0,0.228,0.185,0.417,0.408,0.417
			c0.076,0,0.14-0.02,0.21-0.059c0.879-0.482,1.942-0.952,2.955-0.952c1.388,0,1.949,0.912,3.12,0.912
			c0.834,0,1.63-0.358,2.35-0.756c0.185-0.098,0.331-0.189,0.331-0.43v-4.973C41.69,31.763,41.506,31.574,41.283,31.574z M36,24
			c-6.617,0-12,5.383-12,12c0,6.617,5.383,12,12,12c6.617,0,12-5.383,12-12C48,29.383,42.617,24,36,24z M36,47.04
			c-6.088,0-11.04-4.952-11.04-11.04c0-6.088,4.952-11.04,11.04-11.04c6.088,0,11.04,4.952,11.04,11.04
			C47.04,42.087,42.088,47.04,36,47.04z"/>
	</g>
</g>
</svg>
