<?xml version="1.0" encoding="utf-8"?>
<!-- Generator: Adobe Illustrator 15.1.0, SVG Export Plug-In  -->
<!DOCTYPE svg PUBLIC "-//W3C//DTD SVG 1.1//EN" "http://www.w3.org/Graphics/SVG/1.1/DTD/svg11.dtd" [
	<!ENTITY ns_flows "http://ns.adobe.com/Flows/1.0/">
]>
<svg version="1.1"
	 xmlns="http://www.w3.org/2000/svg" xmlns:xlink="http://www.w3.org/1999/xlink" xmlns:a="http://ns.adobe.com/AdobeSVGViewerExtensions/3.0/"
	 x="0px" y="0px" width="32px" height="420px" viewBox="-0.02 -2 32 420" enable-background="new -0.02 -2 32 420"
	 xml:space="preserve">
<defs>
</defs>
<g>
	<g>
		<path fill-rule="evenodd" clip-rule="evenodd" fill="#FFFFFF" d="M27.012,10.015h-1.338c-0.212-0.781-0.526-1.52-0.919-2.207
			l0.95-0.95c0.779-0.781,0.779-2.048,0-2.829l-0.707-0.707c-0.781-0.781-2.049-0.781-2.83,0l-0.946,0.945
			c-0.692-0.397-1.438-0.713-2.226-0.927V2c0-1.104-0.896-2-2-2h-1c-1.104,0-2,0.896-2,2v1.345c-0.785,0.214-1.527,0.53-2.216,0.926
			l-0.948-0.947c-0.78-0.781-2.047-0.781-2.828,0L7.297,4.03c-0.781,0.781-0.781,2.047,0,2.829L8.249,7.81
			c-0.392,0.687-0.706,1.424-0.917,2.205h-1.35c-1.104,0-2,0.896-2,2v1c0,1.104,0.896,2,2,2h1.356
			c0.215,0.784,0.531,1.524,0.927,2.213l-0.966,0.966c-0.781,0.781-0.781,2.047,0,2.829l0.707,0.707
			c0.781,0.781,2.048,0.781,2.828,0l0.976-0.976c0.682,0.389,1.414,0.701,2.188,0.912v1.365c0,1.104,0.896,2,2,2h1
			c1.104,0,2-0.896,2-2v-1.362c0.778-0.211,1.513-0.523,2.198-0.914l0.974,0.974c0.781,0.781,2.049,0.781,2.83,0l0.707-0.707
			c0.779-0.781,0.779-2.048,0-2.829l-0.965-0.965c0.396-0.689,0.713-1.43,0.928-2.214h1.344c1.105,0,2-0.895,2-2v-1
			C29.012,10.911,28.117,10.015,27.012,10.015z M16.481,19.031c-3.599,0-6.516-2.917-6.516-6.515C9.965,8.917,12.882,6,16.481,6
			c3.599,0,6.515,2.917,6.515,6.516C22.996,16.114,20.08,19.031,16.481,19.031z M16.504,7.031c-3.042,0-5.508,2.465-5.508,5.507
			s2.466,5.508,5.508,5.508c3.042,0,5.507-2.466,5.507-5.508S19.546,7.031,16.504,7.031z M16.45,15.031
			c-1.389,0-2.516-1.126-2.516-2.515c0-1.39,1.127-2.516,2.516-2.516c1.388,0,2.515,1.126,2.515,2.516
			C18.965,13.905,17.838,15.031,16.45,15.031z M16.497,12.031c-0.276,0-0.5,0.224-0.5,0.5c0,0.276,0.224,0.5,0.5,0.5
			c0.275,0,0.5-0.224,0.5-0.5C16.996,12.255,16.772,12.031,16.497,12.031z"/>
	</g>
</g>
<g>
	<g>
		<path fill-rule="evenodd" clip-rule="evenodd" fill="#212C43" d="M27.012,122.015h-1.338c-0.212-0.781-0.526-1.519-0.919-2.207
			l0.95-0.95c0.779-0.781,0.779-2.048,0-2.829l-0.707-0.707c-0.781-0.781-2.049-0.781-2.83,0l-0.946,0.946
			c-0.692-0.397-1.438-0.713-2.226-0.928v-1.342c0-1.104-0.895-2-2-2h-1c-1.105,0-2,0.896-2,2v1.345
			c-0.785,0.214-1.527,0.53-2.216,0.926l-0.948-0.947c-0.781-0.781-2.047-0.781-2.828,0l-0.707,0.707
			c-0.781,0.781-0.781,2.047,0,2.829l0.951,0.951c-0.392,0.687-0.706,1.424-0.917,2.205H5.98c-1.105,0-2,0.896-2,2v1
			c0,1.104,0.895,2,2,2h1.356c0.214,0.784,0.531,1.524,0.927,2.213l-0.966,0.966c-0.781,0.781-0.781,2.047,0,2.829l0.707,0.707
			c0.781,0.781,2.047,0.781,2.828,0l0.976-0.975c0.682,0.388,1.414,0.7,2.188,0.912v1.365c0,1.104,0.895,2,2,2h1
			c1.105,0,2-0.896,2-2v-1.362c0.778-0.211,1.513-0.523,2.198-0.914l0.974,0.974c0.781,0.781,2.049,0.781,2.83,0l0.707-0.707
			c0.779-0.781,0.779-2.048,0-2.829l-0.965-0.965c0.396-0.689,0.713-1.43,0.928-2.214h1.344c1.105,0,2-0.895,2-2v-1
			C29.012,122.911,28.117,122.015,27.012,122.015z M16.48,131.03c-3.6,0-6.516-2.917-6.516-6.515c0-3.599,2.916-6.516,6.516-6.516
			s6.516,2.917,6.516,6.516C22.996,128.113,20.08,131.03,16.48,131.03z M16.504,119.031c-3.043,0-5.508,2.465-5.508,5.507
			s2.465,5.508,5.508,5.508s5.508-2.466,5.508-5.508S19.547,119.031,16.504,119.031z M16.449,127.03
			c-1.389,0-2.516-1.126-2.516-2.515c0-1.39,1.127-2.516,2.516-2.516s2.516,1.126,2.516,2.516
			C18.965,125.904,17.838,127.03,16.449,127.03z M16.496,124.031c-0.277,0-0.5,0.224-0.5,0.5c0,0.276,0.223,0.5,0.5,0.5
			c0.275,0,0.5-0.224,0.5-0.5C16.996,124.254,16.771,124.031,16.496,124.031z"/>
	</g>
</g>
<g>
	<g>
		<path fill-rule="evenodd" clip-rule="evenodd" fill="#212C43" d="M20.193,155.821c-2.602-0.384-2.173-3.318-2.258-3.276
			c-0.086,0.043,0.021-0.618,0.021-0.618c1.498-0.839,1.961-3.171,1.961-3.171v-2.958c0,0-0.555-3.176-2.944-3.176l-2.06-0.719
			c-2.66,0-2.965,3.896-2.965,3.896s0.021,1.076,0,2.718c-0.021,1.643,1.862,3.462,1.862,3.462s0.106,0.661,0.021,0.619
			c-0.084-0.042,0.703,2.84-1.898,3.224s-4.756,1.991-5.246,2.46c-0.851,1.099-0.822,3.815-0.822,3.815h20.117
			c0,0-0.276-3.346-0.767-3.815C24.725,157.812,22.796,156.205,20.193,155.821z M31.21,159.416c-0.345-0.33-1.367-1.458-3.194-1.729
			c-1.828-0.27-1.469-2.39-1.529-2.36c-0.06,0.03,0.016-0.434,0.016-0.434c1.053-0.589,1.387-2.169,1.387-2.169v-2.681
			c0,0-0.457-2.232-2.137-2.232l-1.446-0.505c-1.868,0-2.257,2.737-2.257,2.737s0.016,1.358,0,2.512
			c-0.015,1.154,1.424,2.433,1.424,2.433s0.074,0.464,0.015,0.435c-0.036-0.018,0.076,0.328,0.228,0.622
			c2.086,1.298,2.299,1.797,2.484,2.028c0.186,0.232,0.72,3.977,0.72,3.977l5.062,0.046C31.98,162.096,31.555,159.746,31.21,159.416
			z M8.492,155.423c-0.059,0.03,0.016-0.435,0.016-0.435s1.438-1.279,1.423-2.433c-0.015-1.153,0-2.512,0-2.512
			s-0.388-2.737-2.257-2.737l-1.446,0.505c-1.679,0-2.22,2.232-2.22,2.232v2.681c0,0,0.418,1.58,1.471,2.169
			c0,0,0.074,0.464,0.016,0.434c-0.061-0.03,0.299,2.09-1.529,2.36c-1.828,0.27-2.85,1.399-3.194,1.729S0,162.096,0,162.096
			l5.062-0.046c0,0,0.159-3.464,0.345-3.695c0.186-0.232,0.805-0.918,2.891-2.216C8.073,155.5,8.529,155.405,8.492,155.423z"/>
	</g>
</g>
<g>
	<g>
		<path fill-rule="evenodd" clip-rule="evenodd" fill="#FFFFFF" d="M20.193,43.821c-2.602-0.384-2.173-3.318-2.258-3.276
			c-0.086,0.043,0.021-0.618,0.021-0.618c1.498-0.839,1.961-3.171,1.961-3.171v-2.958c0,0-0.555-3.176-2.944-3.176l-2.06-0.719
			c-2.66,0-2.965,3.896-2.965,3.896s0.021,1.076,0,2.718c-0.021,1.643,1.862,3.462,1.862,3.462s0.106,0.661,0.021,0.619
			c-0.084-0.042,0.703,2.84-1.898,3.224s-4.756,1.991-5.246,2.46c-0.851,1.099-0.822,3.815-0.822,3.815h20.117
			c0,0-0.276-3.346-0.767-3.815C24.725,45.812,22.796,44.205,20.193,43.821z M31.21,47.416c-0.345-0.33-1.367-1.458-3.194-1.729
			c-1.828-0.27-1.469-2.39-1.529-2.36c-0.06,0.03,0.016-0.434,0.016-0.434c1.053-0.589,1.387-2.169,1.387-2.169v-2.681
			c0,0-0.457-2.232-2.137-2.232l-1.446-0.505c-1.868,0-2.257,2.737-2.257,2.737s0.016,1.358,0,2.512
			c-0.015,1.154,1.424,2.433,1.424,2.433s0.074,0.464,0.015,0.435c-0.036-0.018,0.076,0.328,0.228,0.622
			c2.086,1.298,2.299,1.797,2.484,2.028c0.186,0.232,0.72,3.977,0.72,3.977l5.062,0.046C31.98,50.096,31.555,47.746,31.21,47.416z
			 M8.492,43.423c-0.059,0.03,0.016-0.435,0.016-0.435s1.438-1.279,1.423-2.433c-0.015-1.153,0-2.512,0-2.512
			s-0.388-2.737-2.257-2.737l-1.446,0.505c-1.679,0-2.22,2.232-2.22,2.232v2.681c0,0,0.418,1.58,1.471,2.169
			c0,0,0.074,0.464,0.016,0.434c-0.061-0.03,0.299,2.09-1.529,2.36c-1.828,0.27-2.85,1.399-3.194,1.729S0,50.096,0,50.096
			l5.062-0.046c0,0,0.159-3.464,0.345-3.695c0.186-0.232,0.805-0.918,2.891-2.216C8.073,43.5,8.529,43.405,8.492,43.423z"/>
	</g>
</g>
<path fill-rule="evenodd" clip-rule="evenodd" fill="#FFFFFF" d="M8.519,76.988c-3.602,0-6.52-3.039-6.52-6.64
	c0-3.6,1.986-6.711,6.131-6.633c-0.785,1.193,0.506,1.827,0.506,1.827c1.586-4.215,4.1-5.542,6.867-5.542
	c2.733,0,6.061,1.541,6.143,5.396l0.537-1.16c0.449-1.152,1.756-1.203,2.328-1.203c3.473,0,5.594,1.126,5.516,6.539
	c0,3.472-2.609,7.397-8.207,7.397L8.519,76.988z"/>
<path fill-rule="evenodd" clip-rule="evenodd" fill="#212C43" d="M8.52,188.988c-3.602,0-6.52-3.039-6.52-6.639
	c0-3.602,1.986-6.712,6.131-6.634c-0.785,1.193,0.506,1.827,0.506,1.827c1.586-4.215,4.1-5.543,6.867-5.543
	c2.732,0,6.061,1.541,6.143,5.396l0.537-1.16c0.449-1.152,1.756-1.203,2.328-1.203c3.473,0,5.594,1.126,5.516,6.539
	c0,3.473-2.609,7.398-8.207,7.398L8.52,188.988z"/>
<g>
	<g>
		<path fill="#FFFFFF" d="M17.857,95.681c-0.345-0.035-0.743,0.072-1.197,0.323l2.289,2.289c0.238-0.348,0.341-0.723,0.308-1.125
			c-0.033-0.4-0.196-0.748-0.49-1.042C18.505,95.864,18.201,95.716,17.857,95.681z M11.701,93.849
			c0.051,0.325,0.189,0.601,0.416,0.827c0.208,0.208,0.463,0.338,0.767,0.391s0.637,0.007,1.001-0.137l-2.031-2.031
			C11.701,93.208,11.65,93.524,11.701,93.849z M27.639,95.47L15.5,84.488c-0.766-0.767-11.245-0.401-11.245-0.401
			S3.622,95.955,4.281,96.052l12.231,11.388c0.781,0.781,2.047,0.781,2.829,0l7.59-8.434C27.712,98.224,28.419,96.25,27.639,95.47z
			 M6.558,89.531c-0.815-0.815-0.815-2.138,0-2.953c0.815-0.815,2.138-0.815,2.953,0c0.815,0.815,0.815,2.138,0,2.953
			C8.696,90.346,7.374,90.346,6.558,89.531z M20.493,101.538l-1.068-1.068c-0.76,0.594-1.562,0.892-2.407,0.892
			c-0.844,0-1.711-0.327-2.599-0.98l1.367-1.697c0.376,0.251,0.763,0.403,1.162,0.458c0.399,0.055,0.754,0.027,1.068-0.082
			l-2.458-2.459c-0.986,0.547-1.88,0.778-2.683,0.692c-0.803-0.086-1.521-0.446-2.154-1.08c-0.642-0.642-0.979-1.384-1.01-2.225
			c-0.031-0.842,0.257-1.632,0.863-2.372l-0.581-0.581l0.851-0.851l0.581,0.581c0.697-0.548,1.404-0.83,2.122-0.848
			c0.718-0.018,1.422,0.216,2.11,0.702l-1.291,1.678c-0.552-0.372-1.101-0.45-1.644-0.235l2.295,2.295
			c1.193-0.685,2.162-0.995,2.908-0.93c0.745,0.064,1.435,0.413,2.069,1.048c0.708,0.708,1.091,1.519,1.147,2.433
			c0.057,0.914-0.242,1.807-0.896,2.68l1.098,1.097L20.493,101.538z"/>
	</g>
</g>
<g>
	<g>
		<path fill="#212C43" d="M11.701,205.849c0.051,0.325,0.189,0.601,0.416,0.827c0.208,0.208,0.463,0.338,0.767,0.391
			s0.637,0.008,1.001-0.137l-2.031-2.031C11.701,205.208,11.65,205.524,11.701,205.849z M27.639,207.469L15.5,196.489
			c-0.766-0.768-11.245-0.402-11.245-0.402s-0.634,11.868,0.025,11.965l12.231,11.389c0.781,0.781,2.047,0.781,2.829,0l7.589-8.435
			C27.711,210.223,28.418,208.25,27.639,207.469z M6.558,201.531c-0.815-0.815-0.815-2.138,0-2.953s2.138-0.815,2.953,0
			s0.815,2.138,0,2.953S7.374,202.346,6.558,201.531z M20.492,213.538l-1.067-1.067c-0.76,0.595-1.562,0.892-2.407,0.892
			c-0.844,0-1.711-0.326-2.599-0.979l1.367-1.696c0.376,0.25,0.763,0.402,1.162,0.457c0.399,0.055,0.754,0.027,1.068-0.082
			l-2.458-2.459c-0.986,0.548-1.88,0.779-2.683,0.692c-0.803-0.086-1.521-0.446-2.154-1.079c-0.642-0.643-0.979-1.385-1.01-2.225
			c-0.031-0.842,0.257-1.633,0.863-2.373l-0.581-0.58l0.851-0.852l0.581,0.582c0.697-0.549,1.404-0.83,2.122-0.849
			c0.718-0.018,1.422,0.216,2.11,0.702l-1.291,1.678c-0.552-0.371-1.101-0.449-1.644-0.234l2.295,2.295
			c1.193-0.686,2.162-0.995,2.908-0.93c0.745,0.064,1.435,0.412,2.069,1.047c0.707,0.709,1.09,1.52,1.146,2.434
			s-0.242,1.807-0.895,2.68l1.098,1.097L20.492,213.538z M17.857,207.68c-0.345-0.035-0.743,0.072-1.197,0.323l2.289,2.289
			c0.238-0.349,0.341-0.723,0.308-1.124c-0.033-0.4-0.196-0.748-0.49-1.042C18.505,207.864,18.201,207.715,17.857,207.68z"/>
	</g>
</g>
<path fill-rule="evenodd" clip-rule="evenodd" fill="#212C43" d="M17.866,233.986c0,0,0.096-11.986,0-11.986
	c6.896,0,11.986,5.091,11.986,11.986C29.853,234.025,17.866,233.986,17.866,233.986z M28.854,236.446
	c0,7.172-5.814,12.985-12.986,12.985c-7.171,0-12.984-5.813-12.984-12.985c0-7.171,5.813-12.985,12.984-12.985
	c0.338,0,0.669,0.024,1,0.05v11.475h11.908C28.826,235.445,28.854,235.973,28.854,236.446z M27.793,236.046H15.868V224.46
	c-6.619,0-11.985,5.366-11.985,11.985c0,6.62,5.366,11.986,11.985,11.986c6.621,0,11.987-5.366,11.987-11.986
	C27.855,235.157,27.793,236.046,27.793,236.046z"/>
<path fill-rule="evenodd" clip-rule="evenodd" fill="#212C43" d="M28.264,255.434c0.959,2.313,0.502,5.075-1.379,6.956
	c-2.07,2.071-5.201,2.395-7.633,1.021l-1.76,1.922l1.256,1.259l0.75-0.75c0.383-0.383,1.004-0.383,1.387,0l6.082,6.144
	c0.385,0.384,0.385,1.005,0,1.389l-2.775,2.776c-0.385,0.383-1.006,0.383-1.389,0l-6.082-6.144c-0.384-0.383-0.384-1.005,0-1.389
	l0.685-0.684l-1.197-1.199l-8.411,9.189c-0.766,0.766-2.01,0.766-2.775,0l-0.695-0.694c-0.766-0.767-0.766-2.01,0-2.776l9.582-8.025
	l-6.363-6.381l-2.01-0.001l-2.324-3.74l1.871-1.876l3.826,2.341l0.025,1.969l6.438,6.463l1.873-1.568
	c-1.83-2.496-1.64-6.012,0.617-8.269c1.873-1.871,4.617-2.336,6.924-1.396l-4.125,4.067l3.471,3.472L28.264,255.434z M6.631,273.433
	c-0.383-0.383-1.004-0.383-1.389,0c-0.383,0.383-0.383,1.005,0,1.388c0.385,0.384,1.006,0.384,1.389,0
	C7.014,274.438,7.014,273.816,6.631,273.433z"/>
<g>
	<g>
		<path fill-rule="evenodd" clip-rule="evenodd" fill="#212C43" d="M15.98,279c-7.18,0-13,5.82-13,13c0,7.179,5.82,13,13,13
			s13-5.821,13-13C28.98,284.82,23.16,279,15.98,279z M15.875,302.527c-5.799,0-10.5-4.701-10.5-10.501
			c0-5.799,4.701-10.499,10.5-10.499s10.5,4.7,10.5,10.499C26.375,297.826,21.674,302.527,15.875,302.527z M18.908,292.629H15.93
			v-5.031c0-0.547-0.443-0.99-0.99-0.99s-0.99,0.443-0.99,0.99v6.021c0,0.547,0.443,0.989,0.99,0.989h3.969
			c0.547,0,0.99-0.442,0.99-0.989S19.455,292.629,18.908,292.629z"/>
	</g>
</g>
<g>
	<g>
		<path fill-rule="evenodd" clip-rule="evenodd" fill="#212C43" d="M16.934,322.078h-8v0.969h8V322.078z M16.934,319.078h-8v0.905h8
			V319.078z M16.934,325.045h-8v0.97h8V325.045z M11.965,307.046v3.016H8.934v3.016H5.98v18.938h13.969v-3.032h2.952v-2.938h3.016
			v-18.999H11.965z M18.98,331.046H6.949v-17.063H18.98V331.046z M21.933,328.078h-1.983v-15H9.902v-2.047h12.03V328.078z
			 M24.949,325.078h-2.048v-15.016h-9.968v-2.048h12.016V325.078z M16.934,328.062h-8v0.969h8V328.062z M16.948,316.046H8.949v1
			h7.999V316.046z"/>
	</g>
</g>
<path fill-rule="evenodd" clip-rule="evenodd" fill="#212C43" d="M27.98,361h-24c-1.104,0-2-0.895-2-1.999v-9h4V353h4V350h12V353h4
	V350h4v9C29.98,360.105,29.085,361,27.98,361z M22.98,352V348h2V352H22.98z M6.98,352V348h2V352H6.98z M25.98,347h-4v2h-12v-2h-4v2
	h-4v-7c0-1.105,0.896-2.001,2-2.001h24c1.104,0,2,0.896,2,2.001v7h-4V347z M18.98,336.979h-6V339h-2v-0.979h1V335h8.021V338h0.979v1
	h-2V336.979z"/>
<g>
	<g>
		<path fill="#7CCBFC" d="M11.7,373.85c0.051,0.324,0.189,0.6,0.417,0.827c0.207,0.208,0.462,0.337,0.766,0.39
			c0.304,0.054,0.637,0.008,1.001-0.137l-2.031-2.032C11.7,373.208,11.649,373.525,11.7,373.85z M27.637,375.47L15.5,364.489
			c-0.766-0.767-11.245-0.402-11.245-0.402s-0.634,11.869,0.025,11.965l12.231,11.389c0.781,0.781,2.047,0.781,2.828,0l7.59-8.435
			C27.711,378.224,28.418,376.251,27.637,375.47z M6.558,369.531c-0.815-0.815-0.815-2.138,0-2.952c0.815-0.816,2.138-0.816,2.953,0
			c0.815,0.814,0.815,2.137,0,2.952S7.373,370.346,6.558,369.531z M20.492,381.539l-1.068-1.068
			c-0.76,0.595-1.561,0.892-2.406,0.892c-0.844,0-1.712-0.326-2.6-0.979l1.367-1.696c0.377,0.251,0.762,0.403,1.163,0.458
			c0.398,0.055,0.754,0.027,1.068-0.083l-2.459-2.459c-0.986,0.548-1.881,0.779-2.683,0.693c-0.803-0.087-1.521-0.447-2.154-1.08
			c-0.642-0.643-0.979-1.384-1.01-2.225c-0.031-0.842,0.257-1.632,0.863-2.371l-0.581-0.582l0.851-0.851l0.581,0.581
			c0.697-0.548,1.404-0.83,2.122-0.848s1.422,0.216,2.11,0.701l-1.292,1.679c-0.551-0.372-1.099-0.45-1.643-0.235l2.295,2.295
			c1.194-0.685,2.163-0.994,2.907-0.93c0.746,0.064,1.436,0.414,2.068,1.048c0.709,0.708,1.092,1.519,1.148,2.433
			s-0.242,1.807-0.895,2.68l1.098,1.098L20.492,381.539z M17.857,375.681c-0.346-0.035-0.744,0.072-1.197,0.322l2.289,2.29
			c0.238-0.35,0.34-0.724,0.307-1.125c-0.033-0.4-0.195-0.748-0.49-1.041C18.504,375.865,18.201,375.716,17.857,375.681z"/>
	</g>
</g>
<g>
	<g>
		<path fill-rule="evenodd" clip-rule="evenodd" fill="#7CCBFC" d="M15.98,390.999c-7.18,0-13,5.82-13,13.001c0,7.179,5.82,13,13,13
			s13-5.821,13-13C28.98,396.819,23.16,390.999,15.98,390.999z M15.876,414.526c-5.799,0-10.5-4.701-10.5-10.5
			s4.701-10.499,10.5-10.499s10.5,4.7,10.5,10.499S21.675,414.526,15.876,414.526z M18.91,404.629h-2.979v-5.031
			c0-0.547-0.443-0.99-0.99-0.99c-0.546,0-0.989,0.443-0.989,0.99v6.021c0,0.547,0.443,0.99,0.989,0.99h3.97
			c0.547,0,0.99-0.443,0.99-0.99C19.9,405.073,19.457,404.629,18.91,404.629z"/>
	</g>
</g>
</svg>
