<?xml version="1.0" encoding="utf-8"?>
<!-- Generator: Adobe Illustrator 17.0.0, SVG Export Plug-In . SVG Version: 6.00 Build 0)  -->
<!DOCTYPE svg PUBLIC "-//W3C//DTD SVG 1.1//EN" "http://www.w3.org/Graphics/SVG/1.1/DTD/svg11.dtd">
<svg version="1.1" id="Layer_1" xmlns="http://www.w3.org/2000/svg" xmlns:xlink="http://www.w3.org/1999/xlink" x="0px" y="0px"
	 width="37px" height="71px" viewBox="0 0 37 71" enable-background="new 0 0 37 71" xml:space="preserve">
<path fill-rule="evenodd" clip-rule="evenodd" fill="#E4E8EC" d="M15.549,62.633c-4.714-0.186-10.215-3.84-14.476-3.607
	c-4.505,5.483,6.363,8.101,10.825,9.383C16.162,69.636,20.39,70.95,22.751,71c3.094-2.539,0.787-7.039,2.155-10.791
	c1.1-3.018,3.476-5.648,4.215-9.37c-0.781-1.697-4.022-2.943-5.783-2.71c-2.656,3.699-1.856,8.766-3.209,13.02
	c-7.793-9.925-5.332-23.981-0.011-36.994c1.245-3.045,2.998-5.789,4.973-8.563C29.465,9.449,36.196,2.824,41.098-2.776
	c2.422-2.768,5.698-4.892,8.79-6.999c3.012-2.054,7.774-4.738,8.693-7.273c0.898-2.477-0.969-4.948-2.451-6.368
	c-1.442,0.311-2.864,1.635-4.186,2.576C43.592-14.892,35.321-7.179,28.115,2.485c-1.932,2.59-3.715,5.171-5.542,7.841
	C15.454,20.729,10.811,33.05,10.609,44.205c-0.026,1.499,0.366,3.539,0.399,5.407C11.1,54.761,12.806,58.339,15.549,62.633z"/>
</svg>
