<?xml version="1.0" encoding="utf-8"?>
<!-- Generator: Adobe Illustrator 17.0.0, SVG Export Plug-In . SVG Version: 6.00 Build 0)  -->
<!DOCTYPE svg PUBLIC "-//W3C//DTD SVG 1.1//EN" "http://www.w3.org/Graphics/SVG/1.1/DTD/svg11.dtd">
<svg version="1.1" id="Layer_1" xmlns="http://www.w3.org/2000/svg" xmlns:xlink="http://www.w3.org/1999/xlink" x="0px" y="0px"
	 width="37px" height="104px" viewBox="0 0 37 104" enable-background="new 0 0 37 104" xml:space="preserve">
<path fill-rule="evenodd" clip-rule="evenodd" fill="#E4E8EC" d="M25.531,93.988c-3.936,2.602-10.535,2.848-13.858,5.525
	c-0.455,7.082,9.896,2.861,14.267,1.296c4.178-1.493,8.378-2.896,10.324-4.234c1.029-3.868-3.472-6.173-4.553-10.018
	c-0.869-3.092-0.476-6.615-2.049-10.067c-1.625-0.922-4.984-0.04-6.277,1.177c0.004,4.554,3.612,8.199,4.998,12.443
	C16.26,86.602,10.05,73.755,6.77,60.084c-0.768-3.199-0.947-6.45-0.964-9.855C5.769,42.688,7.365,33.38,8.074,25.971
	c0.349-3.661,1.769-7.298,3.048-10.814c1.246-3.427,3.544-8.387,2.809-10.981c-0.717-2.535-3.676-3.45-5.709-3.738
	c-0.989,1.094-1.37,3-1.894,4.535C3.022,14.679,0.813,25.77,0.607,37.824c-0.056,3.231,0.004,6.367,0.08,9.602
	C0.982,60.027,4.409,72.741,10.76,81.914c0.854,1.232,2.364,2.659,3.482,4.156C17.323,90.195,20.797,92.104,25.531,93.988z"/>
</svg>
